<svg viewBox="0 0 200 200" xmlns="http://www.w3.org/2000/svg">
  <!-- Background white -->
  <rect width="200" height="200" fill="white"/>
  
  <!-- Left organic blob form - dark gray/anthracite -->
  <path d="M 25 15 
           C 18 22, 12 32, 12 45
           C 12 58, 14 70, 12 78
           C 10 86, 10 100, 10 100
           C 10 100, 10 114, 12 122
           C 14 130, 12 142, 12 155
           C 12 168, 18 178, 25 185
           C 32 183, 40 183, 48 183
           C 56 185, 64 183, 72 183
           C 80 185, 88 183, 96 183
           C 100 180, 100 170, 100 160
           C 100 150, 100 140, 100 130
           C 100 120, 100 110, 100 100
           C 100 90, 100 80, 100 70
           C 100 60, 100 50, 100 40
           C 100 30, 100 20, 96 18
           C 88 16, 80 16, 72 16
           C 64 16, 56 16, 48 16
           C 40 16, 32 16, 25 15 Z" 
        fill="#2d2d2d" 
        stroke="none"/>
  
  <!-- Right organic blob form (mirrored) - dark gray/anthracite -->
  <path d="M 175 15 
           C 182 22, 188 32, 188 45
           C 188 58, 186 70, 188 78
           C 190 86, 190 100, 190 100
           C 190 100, 190 114, 188 122
           C 186 130, 188 142, 188 155
           C 188 168, 182 178, 175 185
           C 168 183, 160 183, 152 183
           C 144 185, 136 183, 128 183
           C 120 185, 112 183, 104 183
           C 100 180, 100 170, 100 160
           C 100 150, 100 140, 100 130
           C 100 120, 100 110, 100 100
           C 100 90, 100 80, 100 70
           C 100 60, 100 50, 100 40
           C 100 30, 100 20, 104 18
           C 112 16, 120 16, 128 16
           C 136 16, 144 16, 152 16
           C 160 16, 168 16, 175 15 Z" 
        fill="#2d2d2d" 
        stroke="none"/>
</svg>
